<?xml version="1.0" encoding="UTF-8" standalone="no"?>
<svg width="220px" height="25px" viewBox="0 0 220 25" version="1.1" xmlns="http://www.w3.org/2000/svg" xmlns:xlink="http://www.w3.org/1999/xlink">
    <!-- Generator: Sketch 40.1 (33804) - http://www.bohemiancoding.com/sketch -->
    <title>Investopad-logo</title>
    <desc>Created with Sketch.</desc>
    <defs></defs>
    <g id="Hompage" stroke="none" stroke-width="1" fill="none" fill-rule="evenodd">
        <g id="Homepage" transform="translate(-550.000000, -32.000000)" fill="#26273B">
            <g id="Navigation">
                <g id="Investopad-logo" transform="translate(550.000000, 32.000000)">
                    <g id="Group-Copy" transform="translate(0.000000, 3.437341)">
                        <g id="Line-+-Line-+-67fc7a20669799.562ef2de1c48c-+-INVESTOPAD-+-67fc7a20669799.562ef2de1c48c">
                            <path d="M0.105446946,0.366781574 L5.64690793,0.366781574 L5.64690793,20.5136798 L0.105446946,20.5136798 L0.105446946,0.366781574 Z M12.056843,0.366781574 L17.2004555,0.366781574 L25.3847672,11.0158564 L25.3847672,0.366781574 L30.8409749,0.366781574 L30.8409749,20.5136798 L26.0099576,20.5136798 L17.5130508,9.46166706 L17.5130508,20.5136798 L12.056843,20.5136798 L12.056843,0.366781574 Z M35.5458451,0.366781574 L41.7124965,0.366781574 L46.2309186,13.11689 L50.7493406,0.366781574 L56.8023211,0.366781574 L48.7316805,20.6575862 L43.6164857,20.6575862 L35.5458451,0.366781574 Z M61.5071913,0.366781574 L77.5063838,0.366781574 L77.5063838,5.1156933 L66.963399,5.1156933 L66.963399,8.16650932 L76.5117626,8.16650932 L76.5117626,12.5700456 L66.963399,12.5700456 L66.963399,15.7647681 L77.6484725,15.7647681 L77.6484725,20.5136798 L61.5071913,20.5136798 L61.5071913,0.366781574 Z M91.0491738,20.8590552 C89.2683193,20.8590552 87.5774802,20.5808389 85.9766057,20.024398 C84.3757311,19.4679571 82.9595942,18.6333082 81.7281522,17.5204264 L84.7972691,13.8076408 C86.7865214,15.4194007 88.9367762,16.2252686 91.248098,16.2252686 C91.9869632,16.2252686 92.5505762,16.1053478 92.9389541,15.8655026 C93.3273319,15.6256573 93.5215179,15.2850822 93.5215179,14.843767 L93.5215179,14.7862045 C93.5215179,14.5751407 93.4741555,14.3880642 93.3794292,14.2249694 C93.2847029,14.0618747 93.1094618,13.9035792 92.8537008,13.7500783 C92.5979398,13.5965773 92.2569302,13.4478755 91.8306619,13.3039684 C91.4043935,13.1600612 90.850253,13.0113594 90.1682236,12.8578585 C89.107289,12.6084194 88.1221502,12.335 87.2127777,12.0375919 C86.3034052,11.7401838 85.5124525,11.3564372 84.8398957,10.8863406 C84.167339,10.4162439 83.6368796,9.83103037 83.2485018,9.13068231 C82.8601239,8.43033425 82.6659379,7.56210755 82.6659379,6.52597618 L82.6659379,6.46841361 C82.6659379,5.52822033 82.841179,4.66479046 83.1916663,3.87809812 C83.5421536,3.09140578 84.053668,2.41025556 84.7262247,1.83462702 C85.3987815,1.25899848 86.2086792,0.812893047 87.1559422,0.496297349 C88.1032052,0.179701651 89.1735964,0.0214061759 90.3671478,0.0214061759 C92.0722213,0.0214061759 93.5925556,0.246857306 94.9281965,0.697766331 C96.2638373,1.14867536 97.4715796,1.81543508 98.5514594,2.69806551 L95.7949378,6.64110131 C94.8855653,5.9887223 93.9525252,5.49464854 92.9957896,5.15886523 C92.0390539,4.82308191 91.1154863,4.65519277 90.2250591,4.65519277 C89.561975,4.65519277 89.0646693,4.77991042 88.7331273,5.02934945 C88.4015852,5.27878849 88.2358167,5.58578577 88.2358167,5.95035051 L88.2358167,6.00791308 C88.2358167,6.2381645 88.2879154,6.43963146 88.3921143,6.61232003 C88.4963132,6.78500859 88.6762905,6.94330406 88.9320515,7.0872112 C89.1878125,7.23111834 89.5382946,7.37502331 89.9835082,7.51893045 C90.4287218,7.66283758 90.9923349,7.81153939 91.6743643,7.96504034 C92.8110799,8.21447937 93.8388449,8.50708616 94.75769,8.84286947 C95.6765351,9.17865279 96.4580154,9.58638356 97.1021542,10.066074 C97.7462931,10.5457645 98.2388625,11.1261812 98.5798772,11.8073416 C98.9208919,12.4885021 99.0913967,13.2991668 99.0913967,14.2393601 L99.0913967,14.2969226 C99.0913967,15.333054 98.8972106,16.2540459 98.5088328,17.0599258 C98.120455,17.8658058 97.5757869,18.5517528 96.8748123,19.1177876 C96.1738376,19.6838223 95.3307862,20.1155372 94.3456326,20.4129453 C93.3604791,20.7103534 92.2616705,20.8590552 91.0491738,20.8590552 L91.0491738,20.8590552 Z M109.394563,5.25959972 L103.426836,5.25959972 L103.426836,0.366781574 L120.875334,0.366781574 L120.875334,5.25959972 L114.907607,5.25959972 L114.907607,20.5136798 L109.394563,20.5136798 L109.394563,5.25959972 Z M164.043973,10.3826681 C165.029127,10.3826681 165.801135,10.1476233 166.36002,9.67752669 C166.918905,9.20743004 167.198343,8.56945131 167.198343,7.76357135 L167.198343,7.70600879 C167.198343,6.84256598 166.918905,6.18539991 166.36002,5.73449089 C165.801135,5.28358187 165.019654,5.05813073 164.015556,5.05813073 L161.42954,5.05813073 L161.42954,10.3826681 L164.043973,10.3826681 Z M155.916497,0.366781574 L164.441822,0.366781574 C165.692209,0.366781574 166.828908,0.525077049 167.851952,0.841672747 C168.874996,1.15826845 169.746465,1.61876437 170.466385,2.22317434 C171.186304,2.82758431 171.740445,3.57109336 172.128823,4.45372379 C172.517201,5.33635422 172.711387,6.33409539 172.711387,7.44697724 C172.711387,8.69417213 172.498256,9.73988163 172.071987,10.6416997 C171.645719,11.5435177 171.053688,12.3014173 170.295878,12.915421 C169.538068,13.5294248 168.633445,13.9899208 167.581983,14.2969226 C166.530521,14.6039245 165.389086,14.7574232 164.157644,14.7574232 L161.42954,14.7574232 L161.42954,20.5136798 L155.916497,20.5136798 L155.916497,0.366781574 Z M188.135986,12.5700456 L185.919402,6.84257029 L183.6744,12.5700456 L188.135986,12.5700456 Z M183.304969,0.222875158 L188.619088,0.222875158 L197.087577,20.5136798 L191.176685,20.5136798 L189.72738,16.9160194 L182.054588,16.9160194 L180.633701,20.5136798 L174.83648,20.5136798 L183.304969,0.222875158 Z M208.857377,15.5632991 C210.505614,15.5632991 211.831763,15.1219905 212.835862,14.2393601 C213.83996,13.3567296 214.342002,12.0999595 214.342002,10.469012 L214.342002,10.4114494 C214.342002,8.79968949 213.83996,7.54771619 212.835862,6.65549195 C211.831763,5.76326771 210.505614,5.31716228 208.857377,5.31716228 L206.612375,5.31716228 L206.612375,15.5632991 L208.857377,15.5632991 Z M201.099331,0.366781574 L208.772123,0.366781574 C210.552978,0.366781574 212.13962,0.611420035 213.532096,1.1007043 C214.924573,1.58998856 216.099162,2.27593561 217.055897,3.15856604 C218.012633,4.04119648 218.742014,5.09170281 219.244064,6.31011655 C219.746113,7.5285303 219.997134,8.86684659 219.997134,10.3251056 L219.997134,10.3826681 C219.997134,11.8409271 219.741377,13.188837 219.229855,14.4264384 C218.718333,15.6640398 217.979479,16.7337334 217.013271,17.6355515 C216.047062,18.5373695 214.858265,19.2425039 213.446843,19.7509758 C212.035421,20.2594477 210.439307,20.5136798 208.658452,20.5136798 L201.099331,20.5136798 L201.099331,0.366781574 Z" id="INVESTOPAD"></path>
                        </g>
                    </g>
                    <g id="Group-2-Copy" transform="translate(123.169201, 0.000000)">
                        <path d="M9.34805191,23.573349 C8.01952453,23.0127217 6.87392752,22.2504766 5.91122652,21.286591 C4.94852552,20.3227054 4.19281657,19.1916321 3.644077,17.8933372 C3.09533743,16.5950423 2.82097176,15.2082481 2.82097176,13.732913 C2.82097176,12.1985648 3.09533743,10.8068529 3.644077,9.49872243 C4.19281657,8.19059197 4.95815239,7.04968326 5.94010741,6.07596209 C6.92206243,5.10224092 8.0772863,4.33507817 9.40581368,3.77445082 C10.7343411,3.21382348 12.1783709,2.93351402 13.7379465,2.93351402 C15.2975221,2.93351402 16.741552,3.21382348 18.0700794,3.77445082 C19.3986068,4.33507817 20.5442038,5.09732321 21.5069048,6.06120881 C22.4696058,7.02509442 23.2253147,8.1561677 23.7740543,9.4544626 C24.3227939,10.7527575 24.5971595,12.1395517 24.5971595,13.6148868 C24.5971595,15.149235 24.3227939,16.5409469 23.7740543,17.8490774 C23.2253147,19.1572079 22.4599789,20.2981166 21.4780239,21.2718377 C20.4960689,22.2455589 19.340845,23.0127217 18.0123176,23.573349 C16.6837902,24.1339764 15.2397604,24.4142858 13.6801848,24.4142858 C12.1206091,24.4142858 10.6765793,24.1339764 9.34805191,23.573349 Z M10.9272554,19.988576 C10.0798123,19.6309621 9.34905707,19.1447401 8.73496785,18.5298952 C8.12087863,17.9150504 7.63882583,17.1935596 7.28879497,16.3654012 C6.93876412,15.5372428 6.76375132,14.6526324 6.76375132,13.7115433 C6.76375132,12.7328109 6.93876412,11.8450635 7.28879497,11.0106312 C7.63882583,10.1761989 8.12701943,9.44843425 8.75339043,8.82731547 C9.37976144,8.20619669 10.1166574,7.71683772 10.9641006,7.35922387 C11.8115437,7.00161003 12.7326637,6.82280579 13.7274882,6.82280579 C14.7223128,6.82280579 15.6434328,7.00161003 16.4908759,7.35922387 C17.338319,7.71683772 18.0690742,8.20305977 18.6831634,8.81790463 C19.2972527,9.43274948 19.7793055,10.1542403 20.1293363,10.9823987 C20.4793672,11.810557 20.65438,12.6951675 20.65438,13.6362565 C20.65438,14.614989 20.4793672,15.5027363 20.1293363,16.3371687 C19.7793055,17.171601 19.2911119,17.8993656 18.6647408,18.5204844 C18.0383698,19.1416031 17.3014738,19.6309621 16.4540307,19.988576 C15.6065876,20.3461898 14.6854676,20.524994 13.6906431,20.524994 C12.6958185,20.524994 11.7746985,20.3461898 10.9272554,19.988576 Z" id="INVESTOPAD"></path>
                        <path d="M24.9654105,4.75393264 C26.2893552,4.75393264 27.3630469,3.69252626 27.3630469,2.38269814 C27.3630469,1.07287002 26.2893552,0.0114636344 24.9654105,0.0114636344 C23.6414658,0.0114636344 22.5677741,1.07287002 22.5677741,2.38269814 C22.5677741,3.69252626 23.6414658,4.75393264 24.9654105,4.75393264 L24.9654105,4.75393264 Z M24.9654105,3.45534723 C24.3653358,3.45534723 23.8793017,2.97487441 23.8793017,2.38269814 C23.8793017,1.79052187 24.3653358,1.31004904 24.9654105,1.31004904 C25.5654852,1.31004904 26.0515193,1.79052187 26.0515193,2.38269814 C26.0515193,2.97487441 25.5654852,3.45534723 24.9654105,3.45534723 L24.9654105,3.45534723 Z" id="Oval-14"></path>
                        <polygon id="Line" points="28.1415349 16.6741218 28.1415349 15.3522281 0 15.3522281 0 16.6741218"></polygon>
                    </g>
                </g>
            </g>
        </g>
    </g>
</svg>