<?xml version="1.0" encoding="UTF-8" standalone="no"?>
<svg width="839px" height="200px" viewBox="0 0 839 200" version="1.1" xmlns="http://www.w3.org/2000/svg" xmlns:xlink="http://www.w3.org/1999/xlink">
    <!-- Generator: Sketch 3.7.2 (28276) - http://www.bohemiancoding.com/sketch -->
    <title>Group 6</title>
    <desc>Created with Sketch.</desc>
    <defs>
        <radialGradient cx="98.685446%" cy="97.8271186%" fx="98.685446%" fy="97.8271186%" r="324.704225%" id="radialGradient-1">
            <stop stop-color="#BF360C" stop-opacity="0.2" offset="0%"></stop>
            <stop stop-color="#BF360C" stop-opacity="0.02" offset="100%"></stop>
        </radialGradient>
        <radialGradient cx="162.728302%" cy="157.694517%" fx="162.728302%" fy="157.694517%" r="263.10566%" id="radialGradient-2">
            <stop stop-color="#263238" stop-opacity="0.2" offset="0%"></stop>
            <stop stop-color="#263238" stop-opacity="0.02" offset="100%"></stop>
        </radialGradient>
        <radialGradient cx="-1.25065013%" cy="0.781%" fx="-1.25065013%" fy="0.781%" r="167.971194%" id="radialGradient-3">
            <stop stop-color="#FFFFFF" stop-opacity="0.1" offset="0%"></stop>
            <stop stop-color="#FFFFFF" stop-opacity="0" offset="100%"></stop>
        </radialGradient>
    </defs>
    <g id="Page-1" stroke="none" stroke-width="1" fill="none" fill-rule="evenodd">
        <g id="Group-6">
            <g id="XMLID_60_">
                <g id="XMLID_61_">
                    <g id="XMLID_62_">
                        <path d="M122.5,90.6 L70.1,0 L0,0 L57.8,100 L0,200 L70.1,200 L122.5,109.4 C125.8,103.6 125.8,96.4 122.5,90.6 L122.5,90.6 Z" id="XMLID_106_"></path>
                        <polygon id="XMLID_105_" fill="#FFC107" points="92.4 159.8 75.8 131.1 35.9 200 70.1 200 92.9 160.6"></polygon>
                        <path d="M122.5,90.6 L70.1,0 L0,0 L57.8,100 L0,200 L70.1,200 L122.5,109.4 C125.8,103.6 125.8,96.4 122.5,90.6 L122.5,90.6 Z" id="XMLID_104_"></path>
                        <polygon id="XMLID_103_" fill="#0F9D58" points="57.8 100 75.8 131.1 35.9 200 0 200"></polygon>
                        <path d="M122.5,90.6 L70.1,0 L0,0 L57.8,100 L0,200 L70.1,200 L122.5,109.4 C125.8,103.6 125.8,96.4 122.5,90.6 L122.5,90.6 Z" id="XMLID_102_"></path>
                        <polygon id="XMLID_101_" fill="#BF360C" opacity="0.2" points="70.1 198.4 36.8 198.4 35.9 200 70.1 200 92.9 160.6 92.4 159.8"></polygon>
                        <path d="M122.5,90.6 L70.1,0 L0,0 L57.8,100 L0,200 L70.1,200 L122.5,109.4 C125.8,103.6 125.8,96.4 122.5,90.6 L122.5,90.6 Z" id="XMLID_100_"></path>
                        <polygon id="XMLID_99_" fill="#263238" opacity="0.2" points="0.9 198.4 0 200 35.9 200 36.8 198.4"></polygon>
                        <path d="M122.5,90.6 L70.1,0 L0,0 L57.8,100 L0,200 L70.1,200 L122.5,109.4 C125.8,103.6 125.8,96.4 122.5,90.6 L122.5,90.6 Z" id="XMLID_98_"></path>
                        <polygon id="XMLID_96_" fill="#FFFFFF" opacity="0.2" points="0 200 0.9 200 58.3 100.8 57.8 100"></polygon>
                        <path d="M122.5,90.6 L70.1,0 L0,0 L57.8,100 L0,200 L70.1,200 L122.5,109.4 C125.8,103.6 125.8,96.4 122.5,90.6 L122.5,90.6 Z" id="XMLID_94_"></path>
                        <polygon id="XMLID_92_" fill="url(#radialGradient-1)" points="92.9 160.6 75.8 131.1 71.6 138.3"></polygon>
                        <path d="M122.5,90.6 L70.1,0 L0,0 L57.8,100 L0,200 L70.1,200 L122.5,109.4 C125.8,103.6 125.8,96.4 122.5,90.6 L122.5,90.6 Z" id="XMLID_90_"></path>
                        <polygon id="XMLID_89_" fill="url(#radialGradient-2)" points="71.6 138.3 75.8 131.1 57.8 100 49.3 114.8"></polygon>
                        <path d="M122.5,90.6 L70.1,0 L0,0 L57.8,100 L0,200 L70.1,200 L122.5,109.4 C125.8,103.6 125.8,96.4 122.5,90.6 L122.5,90.6 Z" id="XMLID_88_"></path>
                        <g id="XMLID_85_" fill="#4285F4">
                            <g id="XMLID_86_">
                                <polygon id="XMLID_87_" points="35.9 0 0 0 92.9 160.6 110.8 129.5"></polygon>
                            </g>
                        </g>
                        <path d="M122.5,90.6 L70.1,0 L0,0 L57.8,100 L0,200 L70.1,200 L122.5,109.4 C125.8,103.6 125.8,96.4 122.5,90.6 L122.5,90.6 Z" id="XMLID_84_"></path>
                        <path d="M122.5,109.4 C125.9,103.6 125.9,96.4 122.5,90.6 L70.1,0 L35.9,0 L110.8,129.5 L122.5,109.4 L122.5,109.4 Z" id="XMLID_83_" fill="#DB4437"></path>
                        <path d="M122.5,90.6 L70.1,0 L0,0 L57.8,100 L0,200 L70.1,200 L122.5,109.4 C125.8,103.6 125.8,96.4 122.5,90.6 L122.5,90.6 Z" id="XMLID_82_"></path>
                        <polygon id="XMLID_71_" fill="#1A237E" opacity="0.2" points="110.8 129.5 110.4 128.7 92.9 159 0.9 0 0 0 92.9 160.6 110.8 129.5"></polygon>
                        <path d="M122.5,90.6 L70.1,0 L0,0 L57.8,100 L0,200 L70.1,200 L122.5,109.4 C125.8,103.6 125.8,96.4 122.5,90.6 L122.5,90.6 Z" id="XMLID_69_"></path>
                        <path d="M70.1,1.6 L122.5,92.2 C124,94.9 124.8,97.8 125,100.8 C125.1,97.3 124.3,93.8 122.5,90.6 L70.1,0 L0,0 L0.9,1.6 L70.1,1.6 L70.1,1.6 Z" id="XMLID_67_" fill="#FFFFFF" opacity="0.2"></path>
                        <path d="M122.5,90.6 L70.1,0 L0,0 L57.8,100 L0,200 L70.1,200 L122.5,109.4 C125.8,103.6 125.8,96.4 122.5,90.6 L122.5,90.6 Z" id="XMLID_66_"></path>
                        <path d="M110.8,129.5 L122.4,109.4 C124.2,106.3 125,102.7 124.9,99.2 C124.8,102.2 124,105.1 122.4,107.8 L110.3,128.7 L110.8,129.5 L110.8,129.5 Z" id="XMLID_65_" fill="#3E2723" opacity="0.2"></path>
                        <path d="M122.5,90.6 L70.1,0 L0,0 L57.8,100 L0,200 L70.1,200 L122.5,109.4 C125.8,103.6 125.8,96.4 122.5,90.6 L122.5,90.6 Z" id="XMLID_64_"></path>
                        <path d="M122.5,90.6 L70.1,0 L0,0 L57.8,100 L0,200 L70.1,200 L122.5,109.4 C125.8,103.6 125.8,96.4 122.5,90.6 L122.5,90.6 Z" id="XMLID_63_" fill="url(#radialGradient-3)"></path>
                    </g>
                </g>
            </g>
            <path d="M275.5,51.8 C275.5,62.7 272.3,71.5 265.8,77.9 C258.4,85.6 248.8,89.5 237,89.5 C225.7,89.5 216.1,85.6 208.2,77.7 C200.3,69.9 196.3,60.1 196.3,48.6 C196.3,37.1 200.3,27.3 208.2,19.5 C216.1,11.7 225.7,7.7 237,7.7 C242.6,7.7 248,8.8 253.1,11 C258.2,13.2 262.3,16.1 265.3,19.8 L258.4,26.7 C253.2,20.5 246.1,17.4 237,17.4 C228.8,17.4 221.6,20.3 215.6,26.1 C209.6,31.9 206.6,39.4 206.6,48.7 C206.6,58 209.6,65.5 215.6,71.3 C221.6,77.1 228.7,80 237,80 C245.8,80 253,77.1 258.9,71.2 C262.7,67.4 264.9,62.1 265.5,55.3 L237,55.3 L237,45.9 L275,45.9 C275.3,48 275.5,49.9 275.5,51.8 L275.5,51.8 Z" id="XMLID_2_" fill="#FAFAFA"></path>
            <path d="M285.4,87.8 L285.4,9.5 L309.4,9.5 C321.4,9.5 331.1,13.1 338.3,20.4 C345.5,27.7 349.1,37.1 349.1,48.7 C349.1,60.3 345.5,69.7 338.3,77 C331.1,84.3 321.5,87.9 309.4,87.9 L285.4,87.9 L285.4,87.8 Z M295.5,78.2 L309.4,78.2 C318.4,78.2 325.6,75.6 330.9,70.4 C336.2,65.2 338.8,58 338.8,48.6 C338.8,39.3 336.2,32.1 330.9,26.9 C325.6,21.7 318.4,19.1 309.4,19.1 L295.5,19.1 L295.5,78.2 L295.5,78.2 Z" id="XMLID_4_" fill="#FAFAFA"></path>
            <path d="M434.5,51.8 C434.5,62.7 431.3,71.5 424.8,77.9 C417.4,85.6 407.8,89.5 396,89.5 C384.7,89.5 375.1,85.6 367.2,77.7 C359.3,69.9 355.3,60.1 355.3,48.6 C355.3,37.1 359.3,27.3 367.2,19.5 C375.1,11.7 384.7,7.7 396,7.7 C401.6,7.7 407,8.8 412.1,11 C417.2,13.2 421.3,16.1 424.3,19.8 L417.4,26.7 C412.2,20.5 405.1,17.4 396,17.4 C387.8,17.4 380.6,20.3 374.6,26.1 C368.6,31.9 365.6,39.4 365.6,48.7 C365.6,58 368.6,65.5 374.6,71.3 C380.6,77.1 387.7,80 396,80 C404.8,80 412,77.1 417.9,71.2 C421.7,67.4 423.9,62.1 424.5,55.3 L396,55.3 L396,45.9 L434,45.9 C434.3,48 434.5,49.9 434.5,51.8 L434.5,51.8 Z" id="XMLID_8_" fill="#FAFAFA"></path>
            <path d="M470.8,87.8 L470.8,9.5 L494.8,9.5 C506.8,9.5 516.5,13.1 523.7,20.4 C530.9,27.7 534.5,37.1 534.5,48.7 C534.5,60.3 530.9,69.7 523.7,77 C516.5,84.3 506.9,87.9 494.8,87.9 L470.8,87.9 L470.8,87.8 Z M480.9,78.2 L494.8,78.2 C503.8,78.2 511,75.6 516.3,70.4 C521.6,65.2 524.2,58 524.2,48.6 C524.2,39.3 521.6,32.1 516.3,26.9 C511,21.7 503.8,19.1 494.8,19.1 L480.9,19.1 L480.9,78.2 L480.9,78.2 Z" id="XMLID_10_" fill="#FAFAFA"></path>
            <path d="M567.4,89.6 C559.3,89.6 552.7,86.9 547.7,81.5 C542.6,76.1 540.1,69.3 540.1,61 C540.1,53.2 542.6,46.5 547.5,40.9 C552.4,35.3 558.7,32.5 566.4,32.5 C574.3,32.5 580.7,35.1 585.5,40.3 C590.3,45.5 592.7,52.4 592.7,61.1 L592.6,63 L550.3,63 C550.6,68.4 552.4,72.7 555.7,75.8 C559,78.9 562.9,80.5 567.3,80.5 C574.5,80.5 579.4,77.4 582,71.3 L591,75 C589.2,79.2 586.4,82.6 582.4,85.4 C578.2,88.2 573.3,89.6 567.4,89.6 L567.4,89.6 Z M581.9,54.6 C581.7,51.5 580.3,48.6 577.7,45.8 C575.1,43 571.3,41.6 566.2,41.6 C562.5,41.6 559.3,42.8 556.5,45.1 C553.8,47.4 551.9,50.6 550.9,54.5 L581.9,54.5 L581.9,54.6 Z" id="XMLID_13_" fill="#FAFAFA"></path>
            <polygon id="XMLID_16_" fill="#FAFAFA" points="613.7 87.8 592 34.2 603 34.2 618.8 75.8 619 75.8 635 34.2 645.7 34.2 623.8 87.8 613.7 87.8"></polygon>
            <polygon id="XMLID_18_" fill="#FAFAFA" points="661.6 87.8 651.5 87.8 651.5 9.5 697.2 9.5 697.2 19.1 661.5 19.1 661.5 44.8 693.7 44.8 693.7 54.2 661.5 54.2 661.5 87.8"></polygon>
            <path d="M727.7,89.6 C719.6,89.6 713,86.9 708,81.5 C702.9,76.1 700.4,69.3 700.4,61 C700.4,53.2 702.9,46.5 707.8,40.9 C712.7,35.3 719,32.5 726.7,32.5 C734.6,32.5 741,35.1 745.8,40.3 C750.6,45.5 753,52.4 753,61.1 L752.9,63 L710.6,63 C710.9,68.4 712.7,72.7 716,75.8 C719.3,78.9 723.2,80.5 727.6,80.5 C734.8,80.5 739.7,77.4 742.3,71.3 L751.3,75 C749.5,79.2 746.7,82.6 742.7,85.4 C738.4,88.2 733.5,89.6 727.7,89.6 L727.7,89.6 Z M742.1,54.6 C741.9,51.5 740.5,48.6 737.9,45.8 C735.3,43 731.5,41.6 726.4,41.6 C722.7,41.6 719.5,42.8 716.7,45.1 C714,47.4 712.1,50.6 711.1,54.5 L742.1,54.5 L742.1,54.6 Z" id="XMLID_20_" fill="#FAFAFA"></path>
            <path d="M779.5,89.6 C773.5,89.6 768.6,88.1 764.7,85.2 C760.8,82.3 757.9,78.6 756.1,74.3 L765.1,70.6 C767.9,77.3 772.8,80.7 779.6,80.7 C782.7,80.7 785.3,80 787.3,78.6 C789.3,77.2 790.3,75.4 790.3,73.1 C790.3,69.6 787.9,67.2 783,66 L772.2,63.4 C768.8,62.5 765.5,60.9 762.5,58.4 C759.4,56 757.9,52.7 757.9,48.5 C757.9,43.8 760,39.9 764.2,37 C768.4,34 773.4,32.6 779.1,32.6 C783.8,32.6 788.1,33.7 791.8,35.8 C795.5,38 798.2,41 799.8,45 L791,48.6 C789,43.9 784.9,41.5 778.8,41.5 C775.8,41.5 773.3,42.1 771.3,43.4 C769.3,44.6 768.2,46.3 768.2,48.4 C768.2,51.5 770.6,53.5 775.3,54.6 L785.9,57.1 C790.9,58.3 794.7,60.3 797.1,63.1 C799.5,65.9 800.7,69.2 800.7,72.7 C800.7,77.5 798.7,81.5 794.8,84.7 C790.8,88 785.7,89.6 779.5,89.6 L779.5,89.6 Z" id="XMLID_27_" fill="#FAFAFA"></path>
            <path d="M830.9,88.7 C825.3,88.7 821,87.2 818,84.2 C815,81.2 813.6,77 813.6,71.5 L813.6,43.4 L804.2,43.4 L804.2,34.2 L813.6,34.2 L813.6,17.8 L823.7,17.8 L823.7,34.2 L836.8,34.2 L836.8,43.4 L823.7,43.4 L823.7,70.7 C823.7,76.5 826.1,79.5 830.9,79.5 C832.7,79.5 834.3,79.2 835.5,78.6 L839,87.2 C836.8,88.2 834.1,88.7 830.9,88.7 L830.9,88.7 Z" id="XMLID_29_" fill="#FAFAFA"></path>
            <text id="New-Delhi" font-family="Roboto-Medium, Roboto" font-size="80.2600021" font-weight="400" fill="#FFFFFF">
                <tspan x="196" y="174">New Delhi</tspan>
            </text>
        </g>
    </g>
</svg>